PathFileType	4	(X/Y/Z)	/Users/itak/Documents/Research/Walk-IL/dataset/trc/00583_00009.trc
DataRate	CameraRate	NumFrames	NumMarkers	Units	OrigDataRate	OrigDataStartFrame	OrigNumFrames
100.000000	100.000000	4	53	mm	100.000000	297	594
Frame#	Time	RPSI			LPSI			L3			STRN			T10			C7			CLAV			RBAK			LBAK			LSHO			LUPA			LAEL			LAOL			LWTS			LWPS			LFRA			LIFD			LHPS			LHTS			RSHO			RUPA			RAEL			RAOL			RWTS			RWPS			RFRA			RIFD			RHTS			RHPS			RBHD			LFHD			RFHD			LBHD			LHIP			RHIP			RASI			LASI			LKNE			LTHI			LANK			LTIP			LTOE			LMT1			LMT5			LHEE			RKNE			RTHI			RANK			RTIP			RTOE			RMT1			RMT5			RHEE			
		X1	Y1	Z1	X2	Y2	Z2	X3	Y3	Z3	X4	Y4	Z4	X5	Y5	Z5	X6	Y6	Z6	X7	Y7	Z7	X8	Y8	Z8	X9	Y9	Z9	X10	Y10	Z10	X11	Y11	Z11	X12	Y12	Z12	X13	Y13	Z13	X14	Y14	Z14	X15	Y15	Z15	X16	Y16	Z16	X17	Y17	Z17	X18	Y18	Z18	X19	Y19	Z19	X20	Y20	Z20	X21	Y21	Z21	X22	Y22	Z22	X23	Y23	Z23	X24	Y24	Z24	X25	Y25	Z25	X26	Y26	Z26	X27	Y27	Z27	X28	Y28	Z28	X29	Y29	Z29	X30	Y30	Z30	X31	Y31	Z31	X32	Y32	Z32	X33	Y33	Z33	X34	Y34	Z34	X35	Y35	Z35	X36	Y36	Z36	X37	Y37	Z37	X38	Y38	Z38	X39	Y39	Z39	X40	Y40	Z40	X41	Y41	Z41	X42	Y42	Z42	X43	Y43	Z43	X44	Y44	Z44	X45	Y45	Z45	X46	Y46	Z46	X47	Y47	Z47	X48	Y48	Z48	X49	Y49	Z49	X50	Y50	Z50	X51	Y51	Z51	X52	Y52	Z52	X53	Y53	Z53	

298	2.97	-116.5234985351562	1011.894104003906	533.087890625	-123.8104858398438	1007.377502441406	400.0957946777344	-114.1452102661133	1113.431518554688	466.1121215820312	132.2996978759766	1288.03857421875	439.5505065917969	-112.790283203125	1239.52490234375	466.6098937988281	-45.30186462402344	1510.393798828125	481.555908203125	118.7129669189453	1399.951293945312	443.2981567382812	-109.0919647216797	1387.38916015625	575.7770385742188	-98.10128021240234	1461.283813476562	397.2013854980469	-13.71744060516357	1481.377563476562	299.483154296875	-47.91349029541016	1358.340454101562	221.5062103271484	-51.976806640625	1141.398803710938	183.6408081054688	-121.9862899780273	1131.59716796875	256.5033569335938	55.81346130371094	902.9741821289062	192.8800964355469	-7.756406307220459	879.781982421875	136.9839019775391	-30.66171836853027	1057.012451171875	166.2435150146484	56.76178741455078	734.9594116210938	187.1176910400391	5.431248664855957	820.42724609375	139.3851013183594	68.85882568359375	827.62451171875	164.6083984375	32.34143447875977	1468.667724609375	624.6913452148438	21.87568473815918	1409.572387695312	696.9549560546875	26.596923828125	1129.111938476562	773.11669921875	-31.22115707397461	1107.796264648438	754.54345703125	163.2721099853516	908.5581665039062	746.6406860351562	125.7630157470703	895.3390502929688	818.4219970703125	39.13417434692383	1075.204467773438	786.3438110351562	158.4270477294922	752.36279296875	752.454833984375	196.4616241455078	819.6912841796875	771.4461669921875	145.1121063232422	822.6716918945312	824.4387817382812	93.16583251953125	1689.487915039062	532.1871948242188	194.3659973144531	1671.052368164062	351.3867797851562	226.6300506591797	1671.460815429688	491.8827209472656	62.19695663452148	1685.201049804688	369.5688171386719	2.268845796585083	932.66748046875	264.2008666992188	13.10873508453369	945.8975830078125	651.7804565429688	98.163330078125	975.2667846679688	589.4342651367188	78.7242431640625	960.8139038085938	315.0545654296875	192.2861785888672	521.2332763671875	293.7485961914062	123.2677841186523	678.59423828125	266.874755859375	7.886587619781494	76.90666961669922	380.693359375	75.79473876953125	290.9876708984375	338.4809265136719	218.0040740966797	60.35142135620117	359.7254943847656	165.0060882568359	64.66877746582031	416.7432556152344	113.2637176513672	58.97116088867188	324.8659973144531	-34.29682159423828	93.76705932617188	454.2086791992188	34.91164398193359	502.5739135742188	619.2194213867188	55.09413528442383	793.133544921875	647.6749877929688	-99.02178192138672	41.06479263305664	609.084716796875	20.00479698181152	358.1189880371094	610.388916015625	121.5970458984375	40.50271987915039	567.3101806640625	59.10374069213867	44.63393783569336	528.3662109375	31.73761177062988	36.67967224121094	632.1439819335938	-152.5489196777344	40.1931037902832	551.6707153320312	
299	2.98	-109.8398590087891	1011.667785644531	534.4494018554688	-118.5084457397461	1007.125854492188	401.5584106445312	-108.0915679931641	1113.26318359375	467.4778747558594	138.6731109619141	1287.413818359375	438.3112487792969	-106.2677764892578	1239.358764648438	468.0226135253906	-38.04749298095703	1510.031860351562	482.2418823242188	125.3215484619141	1399.352661132812	442.1979064941406	-100.9651718139648	1387.188720703125	577.171875	-91.8677978515625	1461.083374023438	398.4094543457031	-8.438462257385254	1480.944213867188	299.7602844238281	-43.64115905761719	1357.815673828125	222.3463897705078	-48.44354248046875	1140.763061523438	185.0338134765625	-117.6495666503906	1131.250366210938	258.6923828125	58.93741226196289	902.1376342773438	193.7160339355469	-5.263885974884033	878.9490966796875	138.5543212890625	-27.5542049407959	1056.313720703125	167.6060943603516	59.45747375488281	734.1068725585938	188.3830871582031	7.896615505218506	819.5772705078125	140.9056243896484	71.55910491943359	826.6821899414062	165.5377044677734	41.08495330810547	1468.32861328125	624.4660034179688	31.47385215759277	1409.310913085938	696.885009765625	38.04397964477539	1129.02197265625	773.3658447265625	-19.75893592834473	1107.337646484375	755.3444213867188	175.95068359375	909.4182739257812	746.231201171875	138.9530334472656	896.0021362304688	818.2726440429688	50.97616958618164	1075.178100585938	786.619384765625	172.3439178466797	753.4200439453125	752.0029296875	209.9928894042969	820.8527221679688	770.9600219726562	158.93310546875	823.5499877929688	824.3671875	100.9842071533203	1688.906982421875	531.3648071289062	200.3456115722656	1670.51513671875	349.5044860839844	234.091064453125	1670.8857421875	489.685546875	68.31716918945312	1684.727294921875	369.1138000488281	6.004266262054443	932.3746948242188	264.509521484375	20.79861640930176	945.346435546875	651.8011474609375	105.2643737792969	974.489501953125	588.5299072265625	83.29187774658203	960.5822143554688	314.3598022460938	199.1329956054688	522.5028076171875	292.8245239257812	127.9518737792969	678.835693359375	266.0743713378906	33.51765441894531	71.12526702880859	379.7809753417969	92.14313507080078	287.843017578125	337.7356262207031	243.8859405517578	62.76390075683594	356.9724426269531	191.308837890625	64.792724609375	414.4900817871094	139.0553436279297	57.54122161865234	322.9537963867188	-8.557276725769043	86.04232788085938	453.6798095703125	38.12777328491211	501.9924926757812	618.730224609375	61.7270622253418	792.3552856445312	646.6851196289062	-98.85786437988281	41.38034057617188	608.9105224609375	22.11518859863281	357.7158813476562	609.9396362304688	121.6931915283203	40.43349456787109	567.2662353515625	59.28498077392578	44.70719528198242	528.4714965820312	31.77142333984375	36.71252822875977	632.0900268554688	-152.5196838378906	40.45050430297852	551.4010620117188	
300	2.99	-103.1402969360352	1011.366271972656	535.658203125	-113.1791152954102	1006.794006347656	402.8976745605469	-102.0546569824219	1113.036499023438	468.6996154785156	145.0380706787109	1286.712036132812	436.986572265625	-99.73645782470703	1239.119995117188	469.2825317382812	-30.80607414245605	1509.593017578125	482.7530822753906	131.9298553466797	1398.673706054688	440.9998779296875	-92.88310241699219	1386.930786132812	578.3646240234375	-85.59365844726562	1460.820434570312	399.4219055175781	-3.08350396156311	1480.432006835938	299.8936462402344	-39.22642517089844	1357.199462890625	223.0486602783203	-44.68078994750977	1140.012939453125	186.3579559326172	-113.1267013549805	1130.815185546875	260.7264404296875	62.09346389770508	901.09033203125	194.6295471191406	-2.673767328262329	877.97607421875	140.1121215820312	-24.25085258483887	1055.482788085938	168.9126281738281	61.97103500366211	733.0286254882812	189.7754669189453	10.3809757232666	818.5714721679688	142.4560852050781	74.22407531738281	825.4945678710938	166.5955505371094	49.7686653137207	1467.908447265625	624.0875854492188	40.99635314941406	1408.9677734375	696.6656494140625	49.28722763061523	1128.827758789062	773.3690795898438	-8.45887565612793	1106.781372070312	755.8451538085938	188.4609832763672	910.208251953125	745.5708618164062	151.9076080322266	896.5589599609375	817.8187255859375	62.63335800170898	1075.04736328125	786.6083984375	186.2160949707031	754.4482421875	751.0709838867188	223.3685760498047	821.9630737304688	770.1904907226562	172.5341186523438	824.316650390625	823.9592895507812	108.7817611694336	1688.2685546875	530.4174194335938	206.3343963623047	1669.906982421875	347.5127258300781	241.5104827880859	1670.2421875	487.3831176757812	74.43495178222656	1684.165771484375	368.5347900390625	9.77945613861084	931.9796142578125	264.7314758300781	28.45462989807129	944.7152099609375	651.6922607421875	112.346565246582	973.6498413085938	587.5559692382812	87.86080169677734	960.2532348632812	313.5950927734375	205.6858062744141	523.5693359375	291.9196166992188	132.4975891113281	678.8978881835938	265.2528686523438	59.14259338378906	65.83154296875	378.2776794433594	108.4295043945312	284.8758239746094	336.6553344726562	269.4903564453125	65.55831909179688	354.2218627929688	217.2755889892578	65.39121246337891	412.0841369628906	164.8256378173828	56.48381423950195	320.7751159667969	17.08442306518555	78.92544555664062	452.4678955078125	41.35405731201172	501.3943786621094	618.1464233398438	68.29603576660156	791.528564453125	645.60009765625	-98.70420837402344	41.71612930297852	608.7135620117188	24.24579811096191	357.2978515625	609.4301147460938	121.7894515991211	40.36964416503906	567.2281494140625	59.45114898681641	44.79399871826172	528.5700073242188	31.80364608764648	36.7535514831543	632.0299682617188	-152.4977264404297	40.70369338989258	551.1142578125	
301	3	-96.41648101806641	1010.990966796875	536.7086181640625	-107.8126831054688	1006.383178710938	404.1079406738281	-96.0277099609375	1112.752685546875	469.76806640625	151.3977966308594	1285.937255859375	435.5730895996094	-93.1947021484375	1238.808837890625	470.3847045898438	-23.57822227478027	1509.07861328125	483.0924377441406	138.5425872802734	1397.91943359375	439.6963806152344	-84.84257507324219	1386.618530273438	579.3609008789062	-79.28052520751953	1460.496215820312	400.2405090332031	2.335726499557495	1479.839965820312	299.8845520019531	-34.68533706665039	1356.492919921875	223.6143951416016	-40.72058486938477	1139.155395507812	187.6009368896484	-108.4488220214844	1130.287719726562	262.6027526855469	65.30229949951172	899.858154296875	195.5880737304688	0.0333179198205471	876.8787841796875	141.6298522949219	-20.75872039794922	1054.529296875	170.1534271240234	64.33572387695312	731.7498168945312	191.2831726074219	12.88906574249268	817.4252319335938	144.0250091552734	76.87921142578125	824.0869750976562	167.7470397949219	58.39620208740234	1467.406616210938	623.5560913085938	50.46212005615234	1408.54345703125	696.3009643554688	60.33488845825195	1128.531005859375	773.1436767578125	2.661665678024292	1106.134033203125	756.0750122070312	200.7784576416016	910.9193725585938	744.6493530273438	164.6311798095703	897.0006713867188	817.0584716796875	74.10552978515625	1074.814208984375	786.3280029296875	200.0022735595703	755.4334716796875	749.6688232421875	236.5656890869141	823.0105590820312	769.1261596679688	185.9111480712891	824.9649658203125	823.2037353515625	116.5722579956055	1687.576538085938	529.341796875	212.3256530761719	1669.225952148438	345.4164428710938	248.8952331542969	1669.527587890625	484.9728088378906	80.57051086425781	1683.522705078125	367.8264770507812	13.62911033630371	931.490478515625	264.8741760253906	36.05846786499023	944.0225219726562	651.4677734375	119.4218444824219	972.76416015625	586.5261840820312	92.45344543457031	959.8232421875	312.7746887207031	211.9633178710938	524.4210205078125	291.0595092773438	136.9771881103516	678.7952270507812	264.3961791992188	84.66982269287109	61.0655403137207	376.2342834472656	124.5952682495117	282.1100463867188	335.2897033691406	294.7475891113281	68.75476837158203	351.3802795410156	242.8481292724609	66.45761871337891	409.4809265136719	190.4502563476562	55.85079956054688	318.3062133789062	42.57879257202148	72.41331481933594	450.6541748046875	44.57351684570312	500.8016662597656	617.489013671875	74.77542114257812	790.671630859375	644.4644165039062	-98.56103515625	42.07424163818359	608.5017700195312	26.37043571472168	356.8845520019531	608.8849487304688	121.883918762207	40.31571197509766	567.2001342773438	59.57938003540039	44.87185668945312	528.634033203125	31.83487701416016	36.80164337158203	631.9656372070312	-152.4713745117188	40.98913192749023	550.84423828125	
